<?xml version="1.0" standalone="no"?>
<!DOCTYPE svg PUBLIC "-//W3C//DTD SVG 20010904//EN"
 "http://www.w3.org/TR/2001/REC-SVG-20010904/DTD/svg10.dtd">
<svg version="1.0" xmlns="http://www.w3.org/2000/svg"
 width="64.000000pt" height="64.000000pt" viewBox="0 0 64.000000 64.000000"
 preserveAspectRatio="xMidYMid meet">

<g transform="translate(0.000000,64.000000) scale(0.100000,-0.100000)"
fill="#000000" stroke="none">
<path d="M394 629 c-9 -15 4 -24 53 -37 46 -14 99 -67 109 -110 10 -47 13 -52
29 -52 35 0 1 103 -51 152 -48 45 -125 71 -140 47z"/>
<path d="M390 546 c0 -8 10 -18 23 -21 31 -10 64 -43 72 -72 8 -34 41 -28 36
7 -5 38 -19 59 -54 80 -38 23 -77 26 -77 6z"/>
<path d="M132 502 c-44 -80 -41 -180 10 -256 41 -63 102 -97 182 -103 54 -5
72 -2 122 21 l58 27 -82 82 c-65 65 -80 85 -70 95 7 7 24 12 38 12 52 0 78 60
42 93 -38 34 -92 8 -92 -44 0 -14 -5 -30 -12 -37 -10 -10 -30 5 -93 68 l-81
81 -22 -39z"/>
<path d="M130 108 l-12 -68 -39 0 c-32 0 -39 -3 -39 -20 0 -19 7 -20 171 -20
157 0 170 1 167 17 -2 13 -14 19 -40 21 -34 3 -38 6 -44 38 -4 23 -12 34 -23
34 -10 0 -42 15 -73 33 l-55 34 -13 -69z"/>
</g>
</svg>
